<svg version="1.1" viewBox="0.0 0.0 432.3333333333333 158.66666666666666" fill="none" stroke="none" stroke-linecap="square" stroke-miterlimit="10" xmlns:xlink="http://www.w3.org/1999/xlink" xmlns="http://www.w3.org/2000/svg">
    <clipPath id="p.0"><path d="m0 0l432.33334 0l0 158.66667l-432.33334 0l0 -158.66667z" clip-rule="nonzero"/></clipPath>
    <g clip-path="url(#p.0)"><path fill="#ffffff" fill-opacity="0.0" d="m0 0l432.33334 0l0 158.66667l-432.33334 0z" fill-rule="evenodd"/>
        <path fill="#ffffff" fill-opacity="0.0" d="m17.867455 24.236221l118.92913 0l0 109.88977l-118.92913 0z" fill-rule="evenodd"/>
        <path fill="#ffffff" d="m46.648705 105.291214q-5.515625 0 -8.515625 -2.984375q-2.984375 -2.984375 -2.984375 -8.4375l0 -36.8125l5.3125 0l0 36.515625q0 3.4375 1.75 5.296875q1.75 1.859375 5.03125 1.859375q3.515625 0 5.828125 -2.015625l1.875 3.8125q-1.578125 1.421875 -3.78125 2.09375q-2.203125 0.671875 -4.515625 0.671875zm-18.515625 -35.171875l0 -4.390625l24.265625 0l0 4.390625l-24.265625 0zm51.001144 35.171875q-5.6875 0 -10.203125 -2.578125q-4.515625 -2.578125 -7.125 -7.09375q-2.609375 -4.515625 -2.609375 -10.34375q0 -5.890625 2.609375 -10.359375q2.609375 -4.484375 7.09375 -7.015625q4.484375 -2.546875 10.234375 -2.546875q5.8125 0 10.328125 2.546875q4.515625 2.53125 7.09375 7.015625q2.578125 4.46875 2.578125 10.359375q0 5.828125 -2.578125 10.34375q-2.578125 4.515625 -7.140625 7.09375q-4.546875 2.578125 -10.28125 2.578125zm0 -4.703125q4.25 0 7.53125 -1.90625q3.28125 -1.90625 5.1875 -5.375q1.90625 -3.46875 1.90625 -8.03125q0 -4.625 -1.90625 -8.046875q-1.90625 -3.4375 -5.1875 -5.34375q-3.28125 -1.90625 -7.46875 -1.90625q-4.171875 0 -7.46875 1.90625q-3.28125 1.90625 -5.21875 5.34375q-1.9375 3.421875 -1.9375 8.046875q0 4.5625 1.9375 8.03125q1.9375 3.46875 5.21875 5.375q3.296875 1.90625 7.40625 1.90625z" fill-rule="nonzero"/>
        <path fill="#ffffff" fill-opacity="0.0" d="m102.573494 0l140.09448 0l0 164.8189l-140.09448 0z" fill-rule="evenodd"/>
        <path fill="#ffffff" d="m186.22974 115.7q-5.859375 4.984375 -13.078125 7.65625q-7.203125 2.65625 -15.0 2.65625q-5.96875 0 -11.515625 -1.5625q-5.53125 -1.546875 -10.34375 -4.375q-4.796875 -2.84375 -8.781242 -6.796875q-3.984375 -3.96875 -6.796875 -8.796875q-2.8125 -4.828125 -4.375 -10.390625q-1.546875 -5.578125 -1.546875 -11.546875q0 -5.984375 1.546875 -11.484375q1.5625 -5.515625 4.375 -10.34375q2.8125 -4.84375 6.796875 -8.796875q3.9843674 -3.953125 8.781242 -6.765625q4.8125 -2.8125 10.34375 -4.359375q5.546875 -1.5625 11.515625 -1.5625q7.796875 0 15.0 2.671875q7.21875 2.671875 13.078125 7.640625l-8.796875 14.65625q-3.8125 -3.875 -8.796875 -6.0625q-4.96875 -2.203125 -10.484375 -2.203125q-5.5 0 -10.34375 2.109375q-4.828125 2.109375 -8.46875 5.71875q-3.625 3.59375 -5.734375 8.4375q-2.109375 4.828125 -2.109375 10.34375q0 5.5625 2.109375 10.421875q2.109375 4.859375 5.734375 8.5q3.640625 3.625 8.46875 5.734375q4.84375 2.109375 10.34375 2.109375q3.171875 0 6.15625 -0.75q2.984375 -0.765625 5.6875 -2.109375l0 -23.90625l16.234375 0l0 33.15625z" fill-rule="nonzero"/>
        <path fill="#ffffff" fill-opacity="0.0" d="m184.20604 33.937008l331.685 0l0 96.944885l-331.685 0z" fill-rule="evenodd"/>
        <path fill="#ffffff" d="m194.23729 104.37701l17.46875 -44.79687l7.796875 0l17.34375 44.79687l-8.625 0l-9.609375 -25.46875q-0.3125 -0.765625 -0.859375 -2.421875q-0.546875 -1.671875 -1.1875 -3.625q-0.640625 -1.953125 -1.15625 -3.640625q-0.5 -1.703125 -0.765625 -2.46875l1.609375 -0.078125q-0.390625 1.28125 -0.90625 2.890625q-0.515625 1.59375 -1.09375 3.328125q-0.5625 1.71875 -1.109375 3.328125q-0.546875 1.59375 -1.0 2.875l-9.59375 25.28125l-8.3125 0zm7.921875 -10.234375l2.890625 -7.234375l20.40625 0l3.078125 7.234375l-26.375 0zm47.487534 10.234375l0 -37.125l-12.796875 0l0 -7.671871l34.3125 0l0 7.671871l-13.1875 0l0 37.125l-8.328125 0zm58.437164 0l0 -44.79687l8.328125 0l0 44.79687l-8.328125 0zm-28.734375 0l0 -44.79687l8.328125 0l0 44.79687l-8.328125 0zm3.453125 -18.4375l0 -7.796875l29.3125 0l0 7.796875l-29.3125 0zm45.69879 18.4375l0 -44.79687l29.3125 0l0 7.546871l-21.125 0l0 29.703125l21.375 0l0 7.546875l-29.5625 0zm3.84375 -19.203125l0 -7.421875l22.203125 0l0 7.421875l-22.203125 0zm36.15619 19.203125l0 -44.79687l19.453125 0q4.03125 0 7.359375 1.890625q3.328125 1.875 5.28125 5.109371q1.953125 3.234375 1.953125 7.265625q0 3.84375 -1.953125 7.078125q-1.953125 3.234375 -5.25 5.125q-3.296875 1.875 -7.390625 1.875l-11.328125 0l0 16.453125l-8.125 0zm25.984375 0l-11.390625 -20.21875l8.578125 -1.609375l12.671875 21.890625l-9.859375 -0.0625zm-17.859375 -23.6875l11.390625 0q1.859375 0 3.234375 -0.859375q1.375 -0.859375 2.140625 -2.390625q0.78125 -1.546875 0.78125 -3.40625q0 -2.109375 -0.96875 -3.640625q-0.953125 -1.53125 -2.6875 -2.421875q-1.734375 -0.90625 -3.96875 -0.90625l-9.921875 0l0 13.625z" fill-rule="nonzero"/>
        <path fill="#ffffff" fill-opacity="0.0" d="m0 114.66404l433.29135 0" fill-rule="evenodd"/>
        <path stroke="#ffffff" stroke-width="1.0" stroke-linejoin="round" stroke-linecap="butt" d="m0 114.66404l433.29135 0" fill-rule="evenodd"/>
    </g>
</svg>